# xmcd
#
# Track frame offsets:
#	150
#	10250
#	20550
#	28637
#	41825
#	53750
#	64450
#	73912
#	84062
#	96187
#	108300
#	118437
#	128825
#	140875
#	151875
#	161462
#
# Disc length: 2306 seconds
#
# Revision: 1
# Processed by: cddbd v1.5.1PL0 Copyright (c) Steve Scherf et al.
# Submitted via: MusicWizard 7.0.2
#
DISCID=df090010
DTITLE=Various Artist - The Country and Western Collection Cd 2/2
DYEAR=1997
DGENRE=Country
TTITLE0=Various Artist - Silver Threeds And Golden Needles
TTITLE1=Various Artist - Engine, Engine No. 9
TTITLE2=Various Artist - A Fistfull Of Dollars
TTITLE3=Various Artist - Moonlight Gambler
TTITLE4=Various Artist - Queen Of The House
TTITLE5=Various Artist - The Big Country
TTITLE6=Various Artist - Five Feet High And Rising
TTITLE7=Various Artist - A Fallen Star
TTITLE8=Various Artist - Six White Horses
TTITLE9=Various Artist - Fraulein
TTITLE10=Various Artist - High Chaparral
TTITLE11=Various Artist - Let Me Be The One
TTITLE12=Various Artist - Bimbo
TTITLE13=Various Artist - Country Girl
TTITLE14=Various Artist - Streets Of Laredo
TTITLE15=Various Artist - Amigos Guitar
EXTD=YEAR: 1997 ID3G: 2
EXTT0=
EXTT1=
EXTT2=
EXTT3=
EXTT4=
EXTT5=
EXTT6=
EXTT7=
EXTT8=
EXTT9=
EXTT10=
EXTT11=
EXTT12=
EXTT13=
EXTT14=
EXTT15=
PLAYORDER=
